<svg xmlns="http://www.w3.org/2000/svg" xmlns:xlink="http://www.w3.org/1999/xlink">
  <symbol viewBox="0 0 24 24" id="creation-outline"><path fill="currentColor" d="m9 4l2.5 5.5L17 12l-5.5 2.5L9 20l-2.5-5.5L1 12l5.5-2.5zm0 4.83L8 11l-2.17 1L8 13l1 2.17L10 13l2.17-1L10 11zM19 9l-1.26-2.74L15 5l2.74-1.25L19 1l1.25 2.75L23 5l-2.75 1.26zm0 14l-1.26-2.74L15 19l2.74-1.25L19 15l1.25 2.75L23 19l-2.75 1.26z"></path></symbol>
  <symbol viewBox="0 0 24 24" id="trusted-profile"><path fill="currentColor" d="M19 9a7 7 0 1 0-10.974 5.76L5 20l2.256.093L8.464 22l3.466-6.004L12 16c.035.002.046-.003.07-.004L15.536 22l1.232-1.866L19 20l-3.026-5.24A6.99 6.99 0 0 0 19 9M7 9a5 5 0 1 1 5 5a5 5 0 0 1-5-5"></path><circle cx="12" cy="9" r="3" fill="currentColor"></circle></symbol>
  <symbol viewBox="0 0 24 24" id="calm-face"><path fill="currentColor" d="M12 17.5q.975 0 1.875-.437t1.675-1.313l-1.1-1q-.55.6-1.175.913T12 15.974t-1.275-.312t-1.175-.913l-1.1 1q.8.875 1.688 1.313T12 17.5m0 4.5q-2.075 0-3.9-.788t-3.175-2.137T2.788 15.9T2 12t.788-3.9t2.137-3.175T8.1 2.788T12 2t3.9.788t3.175 2.137T21.213 8.1T22 12t-.788 3.9t-2.137 3.175t-3.175 2.138T12 22M8.5 12q1.05 0 1.75-.763t.975-1.812l-1.45-.35q-.125.55-.438.988T8.5 10.5t-.837-.437t-.438-.988l-1.45.35q.275 1.05.975 1.813T8.5 12m7 0q1.05 0 1.75-.763t.975-1.812l-1.45-.35q-.125.55-.437.988t-.838.437t-.837-.437t-.438-.988l-1.45.35q.275 1.05.975 1.813T15.5 12"></path></symbol>
</svg>