<svg xmlns="http://www.w3.org/2000/svg" xmlns:xlink="http://www.w3.org/1999/xlink">
  <symbol viewBox="0 0 24 24" id="chevron-right"><path fill="currentColor" d="M12.6 12L8 7.4L9.4 6l6 6l-6 6L8 16.6l4.6-4.6Z"></path></symbol>
  <symbol viewBox="0 0 24 24" id="chevron-left"><path fill="currentColor" d="m14 18l-6-6l6-6l1.4 1.4l-4.6 4.6l4.6 4.6L14 18Z"></path></symbol>
  <symbol viewBox="0 0 24 24" id="chevron-down"><path fill="currentColor" d="M7.41 8.58L12 13.17l4.59-4.59L18 10l-6 6l-6-6l1.41-1.42Z"></path></symbol>
  <symbol viewBox="0 0 24 24" id="chevron-up"><path fill="currentColor" d="M7.41 15.41L12 10.83l4.59 4.58L18 14l-6-6l-6 6l1.41 1.41Z"></path></symbol>
  <symbol viewBox="0 0 24 24" id="check-outline"><path fill="currentColor" d="m10.5 16.2l-4-4l1.4-1.4l2.6 2.6l5.6-5.6l1.4 1.4l-7 7Z"></path></symbol>
  <symbol viewBox="0 0 13 16" id="avatarman"><path fill="currentColor" d="M4 10h5c1.66 0 3 1.34 3 3v2H1v-2c0-1.66 1.34-3 3-3Zm0-6h5v2.5a2.5 2.5 0 0 1-5 0V4Zm5 0c.55 0 1 .45 1 1s-.45 1-1 1V4ZM4 6c-.55 0-1-.45-1-1s.45-1 1-1v2Z"></path><path fill="currentColor" d="M4.12 4.12h-.5C2.87 3.5 3 2.55 3 1.75s.5-.26 1-.26s1 .5 1 .5c-.88 0-1-1-1-1h3c1.1 0 2 .9 2 2h.5s.25.75-.12 1.25l-5.25-.12Z"></path></symbol>
  <symbol viewBox="0 0 24 24" id="close-outline"><path fill="currentColor" d="M6.4 19L5 17.6l5.6-5.6L5 6.4L6.4 5l5.6 5.6L17.6 5L19 6.4L13.4 12l5.6 5.6l-1.4 1.4l-5.6-5.6L6.4 19Z"></path></symbol>
  <symbol viewBox="0 0 24 24" id="add-outline"><path fill="currentColor" d="M19 13h-6v6h-2v-6H5v-2h6V5h2v6h6v2z"></path></symbol>
  <symbol viewBox="0 0 24 24" id="eyes-outline"><path fill="currentColor" d="M12 4.5C7 4.5 2.73 7.61 1 12c1.73 4.39 6 7.5 11 7.5s9.27-3.11 11-7.5c-1.73-4.39-6-7.5-11-7.5zM12 17c-2.76 0-5-2.24-5-5s2.24-5 5-5s5 2.24 5 5s-2.24 5-5 5zm0-8c-1.66 0-3 1.34-3 3s1.34 3 3 3s3-1.34 3-3s-1.34-3-3-3z"></path></symbol>
  <symbol viewBox="0 0 24 24" id="eyes-off-outline"><path fill="currentColor" d="M11.83 9L15 12.16V12a3 3 0 0 0-3-3h-.17m-4.3.8l1.55 1.55c-.05.21-.08.42-.08.65a3 3 0 0 0 3 3c.22 0 .44-.03.65-.08l1.55 1.55c-.67.33-1.41.53-2.2.53a5 5 0 0 1-5-5c0-.79.2-1.53.53-2.2M2 4.27l2.28 2.28l.45.45C3.08 8.3 1.78 10 1 12c1.73 4.39 6 7.5 11 7.5c1.55 0 3.03-.3 4.38-.84l.43.42L19.73 22L21 20.73L3.27 3M12 7a5 5 0 0 1 5 5c0 .64-.13 1.26-.36 1.82l2.93 2.93c1.5-1.25 2.7-2.89 3.43-4.75c-1.73-4.39-6-7.5-11-7.5c-1.4 0-2.74.25-4 .7l2.17 2.15C10.74 7.13 11.35 7 12 7Z"></path></symbol>
  <symbol viewBox="0 0 24 24" id="creation-outline"><path fill="currentColor" d="m9 4l2.5 5.5L17 12l-5.5 2.5L9 20l-2.5-5.5L1 12l5.5-2.5zm0 4.83L8 11l-2.17 1L8 13l1 2.17L10 13l2.17-1L10 11zM19 9l-1.26-2.74L15 5l2.74-1.25L19 1l1.25 2.75L23 5l-2.75 1.26zm0 14l-1.26-2.74L15 19l2.74-1.25L19 15l1.25 2.75L23 19l-2.75 1.26z"></path></symbol>
  <symbol viewBox="0 0 24 24" id="trusted-profile"><path fill="currentColor" d="M19 9a7 7 0 1 0-10.974 5.76L5 20l2.256.093L8.464 22l3.466-6.004L12 16c.035.002.046-.003.07-.004L15.536 22l1.232-1.866L19 20l-3.026-5.24A6.99 6.99 0 0 0 19 9M7 9a5 5 0 1 1 5 5a5 5 0 0 1-5-5"></path><circle cx="12" cy="9" r="3" fill="currentColor"></circle></symbol>
  <symbol viewBox="0 0 24 24" id="calm-face"><path fill="currentColor" d="M12 17.5q.975 0 1.875-.437t1.675-1.313l-1.1-1q-.55.6-1.175.913T12 15.974t-1.275-.312t-1.175-.913l-1.1 1q.8.875 1.688 1.313T12 17.5m0 4.5q-2.075 0-3.9-.788t-3.175-2.137T2.788 15.9T2 12t.788-3.9t2.137-3.175T8.1 2.788T12 2t3.9.788t3.175 2.137T21.213 8.1T22 12t-.788 3.9t-2.137 3.175t-3.175 2.138T12 22M8.5 12q1.05 0 1.75-.763t.975-1.812l-1.45-.35q-.125.55-.438.988T8.5 10.5t-.837-.437t-.438-.988l-1.45.35q.275 1.05.975 1.813T8.5 12m7 0q1.05 0 1.75-.763t.975-1.812l-1.45-.35q-.125.55-.437.988t-.838.437t-.837-.437t-.438-.988l-1.45.35q.275 1.05.975 1.813T15.5 12"/></symbol>
</svg>