<svg xmlns="http://www.w3.org/2000/svg" xmlns:xlink="http://www.w3.org/1999/xlink">
  <symbol viewBox="0 0 32 32" id="brand-twitter"><circle cx="16" cy="16" r="15.5" fill="#1DA1F2" stroke="#F2F2F2"/><path d="M12.6042 25.0669C20.5292 25.0669 24.863 18.5014 24.863 12.8081C24.863 12.6216 24.8592 12.436 24.8508 12.2512C25.6921 11.643 26.4233 10.8841 27 10.0202C26.228 10.3633 25.3973 10.5943 24.5258 10.6985C25.4153 10.1651 26.0982 9.32129 26.4204 8.31542C25.5879 8.80892 24.6661 9.1676 23.6845 9.36125C22.8983 8.5238 21.779 8 20.5396 8C18.1602 8 16.2308 9.92951 16.2308 12.3079C16.2308 12.646 16.2686 12.9749 16.3425 13.2903C12.7617 13.1101 9.58641 11.3957 7.46135 8.78876C7.09133 9.42547 6.87797 10.1651 6.87797 10.9543C6.87797 12.4491 7.63862 13.7687 8.79529 14.5406C8.08842 14.5188 7.42439 14.3248 6.84401 14.0018C6.84337 14.0198 6.84337 14.0375 6.84337 14.0568C6.84337 16.1434 8.3285 17.8855 10.2999 18.2803C9.9379 18.379 9.55699 18.4319 9.16384 18.4319C8.88664 18.4319 8.61658 18.4046 8.35408 18.3542C8.9026 20.0661 10.4932 21.3118 12.3789 21.3467C10.9043 22.5025 9.04665 23.1909 7.02772 23.1909C6.68038 23.1909 6.33724 23.1711 6 23.1313C7.90682 24.3535 10.171 25.0666 12.6045 25.0666" fill="white"/></symbol>
  <symbol viewBox="0 0 32 32" id="brand-linkedin"><circle cx="16" cy="16" r="15.5" fill="#0077B5" stroke="#F2F2F2"/><path fill-rule="evenodd" clip-rule="evenodd" d="M12.0992 9.86471C12.0992 10.9013 11.308 11.7307 10.0374 11.7307H10.0141C8.79086 11.7307 8 10.9013 8 9.86471C8 8.80621 8.81492 8 10.0614 8C11.308 8 12.0756 8.80621 12.0992 9.86471ZM11.8592 13.2042V23.9997H8.21545V13.2042H11.8592ZM24.9999 23.9997L25 17.8099C25 14.494 23.2024 12.9507 20.8046 12.9507C18.87 12.9507 18.0039 13.9985 17.5203 14.7335V13.2045H13.8761C13.9241 14.2175 13.8761 24 13.8761 24H17.5203V17.9709C17.5203 17.6482 17.544 17.3264 17.6403 17.0954C17.9037 16.4508 18.5033 15.7835 19.5099 15.7835C20.829 15.7835 21.3563 16.7734 21.3563 18.2241V23.9997H24.9999Z" fill="white"/></symbol>
  <symbol viewBox="0 0 256 256" id="brand-facebook"><path fill="#1877F2" d="M256 128C256 57.308 198.692 0 128 0C57.308 0 0 57.307 0 128c0 63.888 46.808 116.843 108 126.445V165H75.5v-37H108V99.8c0-32.08 19.11-49.8 48.347-49.8C170.352 50 185 52.5 185 52.5V84h-16.14C152.958 84 148 93.867 148 103.99V128h35.5l-5.675 37H148v89.445c61.192-9.602 108-62.556 108-126.445"/><path fill="#FFF" d="m177.825 165l5.675-37H148v-24.01C148 93.866 152.959 84 168.86 84H185V52.5S170.352 50 156.347 50C127.11 50 108 67.72 108 99.8V128H75.5v37H108v89.445A128.959 128.959 0 0 0 128 256a128.9 128.9 0 0 0 20-1.555V165h29.825"/></symbol>
  <symbol viewBox="0 0 256 256" id="brand-telegram"><defs><linearGradient id="svgIDa" x1="50%" x2="50%" y1="0%" y2="100%"><stop offset="0%" stop-color="#2AABEE"/><stop offset="100%" stop-color="#229ED9"/></linearGradient></defs><path fill="url(#svgIDa)" d="M128 0C94.06 0 61.48 13.494 37.5 37.49A128.038 128.038 0 0 0 0 128c0 33.934 13.5 66.514 37.5 90.51C61.48 242.506 94.06 256 128 256s66.52-13.494 90.5-37.49c24-23.996 37.5-56.576 37.5-90.51c0-33.934-13.5-66.514-37.5-90.51C194.52 13.494 161.94 0 128 0Z"/><path fill="#FFF" d="M57.94 126.648c37.32-16.256 62.2-26.974 74.64-32.152c35.56-14.786 42.94-17.354 47.76-17.441c1.06-.017 3.42.245 4.96 1.49c1.28 1.05 1.64 2.47 1.82 3.467c.16.996.38 3.266.2 5.038c-1.92 20.24-10.26 69.356-14.5 92.026c-1.78 9.592-5.32 12.808-8.74 13.122c-7.44.684-13.08-4.912-20.28-9.63c-11.26-7.386-17.62-11.982-28.56-19.188c-12.64-8.328-4.44-12.906 2.76-20.386c1.88-1.958 34.64-31.748 35.26-34.45c.08-.338.16-1.598-.6-2.262c-.74-.666-1.84-.438-2.64-.258c-1.14.256-19.12 12.152-54 35.686c-5.1 3.508-9.72 5.218-13.88 5.128c-4.56-.098-13.36-2.584-19.9-4.708c-8-2.606-14.38-3.984-13.82-8.41c.28-2.304 3.46-4.662 9.52-7.072Z"/></symbol>
  <symbol viewBox="0 0 256 262" id="brand-google"><path fill="#4285F4" d="M255.878 133.451c0-10.734-.871-18.567-2.756-26.69H130.55v48.448h71.947c-1.45 12.04-9.283 30.172-26.69 42.356l-.244 1.622l38.755 30.023l2.685.268c24.659-22.774 38.875-56.282 38.875-96.027"></path><path fill="#34A853" d="M130.55 261.1c35.248 0 64.839-11.605 86.453-31.622l-41.196-31.913c-11.024 7.688-25.82 13.055-45.257 13.055c-34.523 0-63.824-22.773-74.269-54.25l-1.531.13l-40.298 31.187l-.527 1.465C35.393 231.798 79.49 261.1 130.55 261.1"></path><path fill="#FBBC05" d="M56.281 156.37c-2.756-8.123-4.351-16.827-4.351-25.82c0-8.994 1.595-17.697 4.206-25.82l-.073-1.73L15.26 71.312l-1.335.635C5.077 89.644 0 109.517 0 130.55s5.077 40.905 13.925 58.602l42.356-32.782"></path><path fill="#EB4335" d="M130.55 50.479c24.514 0 41.05 10.589 50.479 19.438l36.844-35.974C195.245 12.91 165.798 0 130.55 0C79.49 0 35.393 29.301 13.925 71.947l42.211 32.783c10.59-31.477 39.891-54.251 74.414-54.251"></path></symbol>
  <symbol viewBox="0 0 16 16" id="brand-github"><path fill="white" fill-rule="evenodd" d="M7.976 0A7.977 7.977 0 0 0 0 7.976c0 3.522 2.3 6.507 5.431 7.584c.392.049.538-.196.538-.392v-1.37c-2.201.49-2.69-1.076-2.69-1.076c-.343-.93-.881-1.175-.881-1.175c-.734-.489.048-.489.048-.489c.783.049 1.224.832 1.224.832c.734 1.223 1.859.88 2.3.685c.048-.538.293-.88.489-1.076c-1.762-.196-3.621-.881-3.621-3.964c0-.88.293-1.566.832-2.153c-.05-.147-.343-.978.098-2.055c0 0 .685-.196 2.201.832c.636-.196 1.322-.245 2.007-.245s1.37.098 2.006.245c1.517-1.027 2.202-.832 2.202-.832c.44 1.077.146 1.908.097 2.104a3.16 3.16 0 0 1 .832 2.153c0 3.083-1.86 3.719-3.62 3.915c.293.244.538.733.538 1.467v2.202c0 .196.146.44.538.392A7.984 7.984 0 0 0 16 7.976C15.951 3.572 12.38 0 7.976 0z" clip-rule="evenodd"></path></symbol>

  <symbol viewBox="0 0 15 15" id="outline-clock"><path d="M7.5 7.5H7C7 7.63261 7.05268 7.75979 7.14645 7.85355L7.5 7.5ZM7.5 14C3.91015 14 1 11.0899 1 7.5H0C0 11.6421 3.35786 15 7.5 15V14ZM14 7.5C14 11.0899 11.0899 14 7.5 14V15C11.6421 15 15 11.6421 15 7.5H14ZM7.5 1C11.0899 1 14 3.91015 14 7.5H15C15 3.35786 11.6421 0 7.5 0V1ZM7.5 0C3.35786 0 0 3.35786 0 7.5H1C1 3.91015 3.91015 1 7.5 1V0ZM7 3V7.5H8V3H7ZM7.14645 7.85355L10.1464 10.8536L10.8536 10.1464L7.85355 7.14645L7.14645 7.85355Z" fill="#9DA0A6"/></symbol>
  <symbol viewBox="0 0 24 24" id="outline-add-link"><path fill="currentColor" d="M8 11h8v2H8v-2zm12.1 1H22c0-2.76-2.24-5-5-5h-4v1.9h4c1.71 0 3.1 1.39 3.1 3.1zM3.9 12c0-1.71 1.39-3.1 3.1-3.1h4V7H7c-2.76 0-5 2.24-5 5s2.24 5 5 5h4v-1.9H7c-1.71 0-3.1-1.39-3.1-3.1zM19 12h-2v3h-3v2h3v3h2v-3h3v-2h-3v-3z"/></symbol>
  <symbol viewBox="0 0 48 48" id="icon-park-outline-send-email"><g fill="none" stroke="currentColor" stroke-linecap="round" stroke-linejoin="round" stroke-width="4"><path d="M44 24V9H4v30h20m20-5H30m9-5l5 5l-5 5"/><path d="m4 9l20 15L44 9"/></g></symbol>
  <symbol viewBox="0 0 24 24" id="tabler-search-outline"><g fill="none" stroke="currentColor" stroke-linecap="round" stroke-linejoin="round" stroke-width="2"><circle cx="10" cy="10" r="7"/><path d="m21 21l-6-6"/></g></symbol>
  <symbol viewBox="0 0 24 24" id="baseline-clear-outline"><path fill="currentColor" d="M19 6.41L17.59 5L12 10.59L6.41 5L5 6.41L10.59 12L5 17.59L6.41 19L12 13.41L17.59 19L19 17.59L13.41 12z"/></symbol>
  <symbol viewBox="0 0 24 24" id="logout-outline"><path fill="currentColor" d="M5 21q-.825 0-1.413-.587Q3 19.825 3 19V5q0-.825.587-1.413Q4.175 3 5 3h7v2H5v14h7v2Zm11-4l-1.375-1.45l2.55-2.55H9v-2h8.175l-2.55-2.55L16 7l5 5Z"/></symbol>
  <symbol viewBox="0 0 20 20" id="cheveron-right-outline"><path fill="currentColor" d="m12.95 10.707l.707-.707L8 4.343L6.586 5.757L10.828 10l-4.242 4.243L8 15.657l4.95-4.95z"></path></symbol>
  <symbol viewBox="0 0 20 20" id="cheveron-left-outline"><path fill="currentColor" d="M7.05 9.293L6.343 10L12 15.657l1.414-1.414L9.172 10l4.242-4.243L12 4.343z"></path></symbol>
  <symbol viewBox="0 0 20 20" id="cheveron-down-outline"><path fill="currentColor" d="m9.293 12.95l.707.707L15.657 8l-1.414-1.414L10 10.828L5.757 6.586L4.343 8z"></path></symbol>
  <symbol viewBox="0 0 20 20" id="cheveron-up-outline"><path fill="currentColor" d="M10.707 7.05L10 6.343L4.343 12l1.414 1.414L10 9.172l4.243 4.242L15.657 12z"></path></symbol>
  <symbol viewBox="0 0 24 24" id="close-outline"><path fill="currentColor" d="M6.4 19L5 17.6l5.6-5.6L5 6.4L6.4 5l5.6 5.6L17.6 5L19 6.4L13.4 12l5.6 5.6l-1.4 1.4l-5.6-5.6L6.4 19Z"></path></symbol>
  <symbol viewBox="0 0 24 24" id="mail-outline"><path fill="currentColor" d="M4 20q-.825 0-1.413-.588T2 18V6q0-.825.588-1.413T4 4h16q.825 0 1.413.588T22 6v12q0 .825-.588 1.413T20 20H4Zm8-7L4 8v10h16V8l-8 5Zm0-2l8-5H4l8 5ZM4 8V6v12V8Z"></path></symbol>
</svg>