<svg xmlns="http://www.w3.org/2000/svg" xmlns:xlink="http://www.w3.org/1999/xlink">
  <symbol viewBox="0 0 256 256" id="facebook"><path fill="#1877F2" d="M256 128C256 57.308 198.692 0 128 0C57.308 0 0 57.307 0 128c0 63.888 46.808 116.843 108 126.445V165H75.5v-37H108V99.8c0-32.08 19.11-49.8 48.347-49.8C170.352 50 185 52.5 185 52.5V84h-16.14C152.958 84 148 93.867 148 103.99V128h35.5l-5.675 37H148v89.445c61.192-9.602 108-62.556 108-126.445"></path><path fill="#FFF" d="m177.825 165l5.675-37H148v-24.01C148 93.866 152.959 84 168.86 84H185V52.5S170.352 50 156.347 50C127.11 50 108 67.72 108 99.8V128H75.5v37H108v89.445A128.959 128.959 0 0 0 128 256a128.9 128.9 0 0 0 20-1.555V165h29.825"></path></symbol>
  <symbol viewBox="0 0 24 24" id="github"><g fill="none"><g clip-path="url(#akarIconsGithubFill0)"><path fill="currentColor" fill-rule="evenodd" d="M12 0C5.37 0 0 5.37 0 12c0 5.31 3.435 9.795 8.205 11.385c.6.105.825-.255.825-.57c0-.285-.015-1.23-.015-2.235c-3.015.555-3.795-.735-4.035-1.41c-.135-.345-.72-1.41-1.23-1.695c-.42-.225-1.02-.78-.015-.795c.945-.015 1.62.87 1.845 1.23c1.08 1.815 2.805 1.305 3.495.99c.105-.78.42-1.305.765-1.605c-2.67-.3-5.46-1.335-5.46-5.925c0-1.305.465-2.385 1.23-3.225c-.12-.3-.54-1.53.12-3.18c0 0 1.005-.315 3.3 1.23c.96-.27 1.98-.405 3-.405s2.04.135 3 .405c2.295-1.56 3.3-1.23 3.3-1.23c.66 1.65.24 2.88.12 3.18c.765.84 1.23 1.905 1.23 3.225c0 4.605-2.805 5.625-5.475 5.925c.435.375.81 1.095.81 2.22c0 1.605-.015 2.895-.015 3.3c0 .315.225.69.825.57A12.02 12.02 0 0 0 24 12c0-6.63-5.37-12-12-12Z" clip-rule="evenodd"></path></g><defs><clipPath id="akarIconsGithubFill0"><path fill="#fff" d="M0 0h24v24H0z"></path></clipPath></defs></g></symbol>
  <symbol viewBox="0 0 256 262" id="google"><path fill="#4285F4" d="M255.878 133.451c0-10.734-.871-18.567-2.756-26.69H130.55v48.448h71.947c-1.45 12.04-9.283 30.172-26.69 42.356l-.244 1.622l38.755 30.023l2.685.268c24.659-22.774 38.875-56.282 38.875-96.027"></path><path fill="#34A853" d="M130.55 261.1c35.248 0 64.839-11.605 86.453-31.622l-41.196-31.913c-11.024 7.688-25.82 13.055-45.257 13.055c-34.523 0-63.824-22.773-74.269-54.25l-1.531.13l-40.298 31.187l-.527 1.465C35.393 231.798 79.49 261.1 130.55 261.1"></path><path fill="#FBBC05" d="M56.281 156.37c-2.756-8.123-4.351-16.827-4.351-25.82c0-8.994 1.595-17.697 4.206-25.82l-.073-1.73L15.26 71.312l-1.335.635C5.077 89.644 0 109.517 0 130.55s5.077 40.905 13.925 58.602l42.356-32.782"></path><path fill="#EB4335" d="M130.55 50.479c24.514 0 41.05 10.589 50.479 19.438l36.844-35.974C195.245 12.91 165.798 0 130.55 0C79.49 0 35.393 29.301 13.925 71.947l42.211 32.783c10.59-31.477 39.891-54.251 74.414-54.251"></path></symbol>
</svg>